<svg version="1.1" xmlns="http://www.w3.org/2000/svg" xmlns:xlink="http://www.w3.org/1999/xlink"
     viewBox="0 0 1080 1080" xml:space="preserve">

  <style>
    .icon-path { fill: #FFFFFF; }
    @media (prefers-color-scheme: light) {
      .icon-path { fill: #000000; }
    }
  </style>

  <path class="icon-path" opacity="1.000000" stroke="none"
    d="
M229.537048,635.539062
  C185.180573,672.288940 146.606110,713.996765 111.811264,759.642517
  C112.947098,756.525391 114.015144,753.381653 115.228546,750.295044
  C171.089035,608.193359 226.979462,466.103333 282.738678,323.961884
  C284.191925,320.257233 285.844055,319.032654 289.860321,319.054871
  C323.855804,319.243164 357.852844,319.189911 391.849213,319.113220
  C394.748322,319.106659 396.617981,319.475159 398.011627,322.585602
  C426.116394,385.312531 454.360535,447.977020 482.570312,510.656891
  C482.840485,511.257202 483.026276,511.895447 483.409821,512.952271
  C445.055115,521.663879 407.652771,533.064331 371.256073,548.875305
  C363.558868,529.373352 356.017700,510.266724 348.011719,489.982391
  C346.741577,493.268829 345.800720,495.594025 344.939453,497.948334
  C336.099762,522.113098 327.401733,546.331360 318.290100,570.393066
  C317.060150,573.641174 314.319183,577.044434 311.346710,578.792236
  C282.749664,595.607239 255.403259,614.182861 229.537048,635.539062
z"/>
  <path class="icon-path" opacity="1.000000" stroke="none"
    d="
M665.986450,764.001038
  C595.672913,764.001038 525.857300,764.001038 455.607788,764.001038
  C453.930176,759.761902 452.232056,755.501953 450.556793,751.232971
  C434.792450,711.060608 419.086517,670.865051 403.184875,630.747070
  C401.617432,626.792664 401.737793,624.477844 405.878235,622.564331
  C429.970154,611.430298 453.876892,599.886780 478.101562,589.052551
  C489.080322,584.142395 500.646912,580.546509 512.089417,576.301575
  C526.695190,608.773376 540.846558,640.235046 554.997925,671.696655
  C555.243591,671.673645 555.489197,671.650635 555.734863,671.627625
  C555.734863,636.026367 555.734863,600.425171 555.734863,564.622437
  C596.327637,554.608704 636.989563,548.578186 678.494263,546.061768
  C678.494263,618.744202 678.494263,691.136169 678.494263,764.001038
  C674.392761,764.001038 670.438538,764.001038 665.986450,764.001038
z"/>
  <path class="icon-path" opacity="1.000000" stroke="none"
    d="
M909.380676,644.000366
  C909.380676,684.628723 909.380676,724.757141 909.380676,765.196899
  C869.334656,765.196899 829.610962,765.196899 789.547607,765.196899
  C789.547607,692.173279 789.547607,619.298950 789.547607,545.883057
  C829.671448,548.138184 869.348328,553.313171 909.380676,560.051758
  C909.380676,587.940979 909.380676,615.720642 909.380676,644.000366
z"/>
  <path class="icon-path" opacity="1.000000" stroke="none"
    d="
M909.359009,378.000244
  C909.358521,433.603485 909.358521,488.706726 909.358521,543.613342
  C869.367126,533.198792 829.640930,522.853271 789.427734,512.380981
  C789.427734,448.314606 789.427734,383.079498 789.427734,317.421478
  C829.296631,317.421478 868.996704,317.421478 909.359558,317.421478
  C909.359558,337.354156 909.359558,357.427216 909.359009,378.000244
z"/>
  <path class="icon-path" opacity="1.000000" stroke="none"
    d="
M556.095093,404.999939
  C556.095093,376.214691 556.095093,347.929443 556.095093,319.403503
  C597.009888,319.403503 637.453430,319.403503 678.305664,319.403503
  C678.305664,379.219818 678.305664,439.082977 678.305664,499.434570
  C637.588623,496.630707 597.057373,498.110382 556.095093,501.721313
  C556.095093,469.423187 556.095093,437.461578 556.095093,404.999939
z"/>
</svg>
